<?xml version="1.0" encoding="utf-8" ?><svg xmlns="http://www.w3.org/2000/svg" xmlns:xlink="http://www.w3.org/1999/xlink" width="674" height="524" viewBox="0 0 674 524"><path fill="white" transform="scale(0.585069 0.585069)" d="M0 0L1152 0L1152 896L0 896L0 0Z"/><path fill="#68A261" transform="scale(0.585069 0.585069)" d="M653.393 715.711C684.22 714.745 719.498 715.526 750.736 715.519L944.219 715.54C944.375 733.844 944.337 752.15 944.106 770.454L931.781 770.519L838.626 770.571C838.656 767.792 839.116 763.799 837.563 761.721C835.579 761.579 834.891 761.366 833.101 762.063L832.934 762.8C834.427 764.874 836.181 767.642 834.504 770.2C829.001 771.521 796.147 770.558 788.471 770.565L653.005 770.512C652.89 764.268 652.253 718.574 653.393 715.711Z"/><path fill="white" transform="scale(0.585069 0.585069)" d="M687.986 740.15C693.161 732.363 702.015 731.302 706.287 740.246C707.983 740.319 708.421 740.232 710.116 739.961C710.691 741.765 712.054 744.649 712.231 746.053C711.088 747.902 710.418 749.602 710.315 751.794C709.203 753.046 707.572 755.014 706.324 756.01C706.065 758.002 705.435 758.026 703.744 758.443C699.75 754.306 707.596 737.405 696.395 737.262C695.267 737.246 694.188 737.728 693.447 738.579C690.794 741.57 691.499 749.752 691.558 753.843C692.766 752.202 695.299 749.268 695.424 747.469L693.785 746.114C694.174 744.546 693.768 745.216 695.249 744.18C697.715 744.024 698.032 744.055 700.388 744.795C700.508 747.839 692.991 758.538 689.129 758.547C687.357 756.027 687.987 744.099 687.986 740.15Z"/><path fill="#8AC454" transform="scale(0.585069 0.585069)" d="M706.287 740.246C707.983 740.319 708.421 740.232 710.116 739.961C710.691 741.765 712.054 744.649 712.231 746.053C711.088 747.902 710.418 749.602 710.315 751.794C709.203 753.046 707.572 755.014 706.324 756.01L706.287 740.246Z"/><path fill="white" transform="scale(0.585069 0.585069)" d="M791.284 734.383C795.517 734.181 794.994 736.045 797.534 736.119C798.845 734.993 799.322 734.359 801.025 734.064C807.741 736.45 807.493 755.915 804.543 758.193L803.163 757.986C801.143 755.389 804.077 742.76 800.884 738.274L799.805 738.292C794.647 743.876 796.614 738.726 792.85 737.824C791.374 738.883 791.304 739.505 790.662 741.194L790.518 753.693C796.17 747.129 793.348 749.938 793.364 744.974L794.149 744.4C796.617 744.254 797.294 744.169 799.693 744.667C799.259 748.086 792.083 758.721 788.177 757.943C786.67 755.937 787.429 742.28 787.488 738.765C788.618 737.326 790.059 735.772 791.284 734.383Z"/><path fill="white" transform="scale(0.585069 0.585069)" d="M837.545 732.254L839.653 732.517C841.761 735.101 838.578 735.571 838.203 736.815C836.778 741.554 840.474 754.812 836.742 758.345L835.325 758.198C834.416 756.781 834.645 748.943 834.599 746.602C831.365 747.112 824.483 747.606 824.243 751.649C825.461 753.832 828.246 755.249 830.472 756.766L830.279 757.58C828.123 758.7 826.378 758.269 823.891 758.065C819.091 754.337 818.748 748.667 824.432 745.718C828.255 743.734 833.935 746.185 835.029 740.562C834.292 738.3 834.824 738.934 833.163 737.497C828.442 736.514 826.493 739.87 821.901 740.759L821.558 740.032C823.882 733.363 828.337 734.219 834.21 734.404C836.18 734.466 836.219 733.687 837.545 732.254Z"/><path fill="white" transform="scale(0.585069 0.585069)" d="M759.108 732.82C761.072 733.024 760.311 732.619 761.605 733.752C761.503 737.566 759.529 734.913 759.469 739.06C759.389 744.588 761.063 752.532 759.572 757.765C758.004 758.554 758.842 758.415 756.946 757.94C755.934 756.428 756.131 748.902 756.086 746.563C752.496 747.154 745.639 747.889 745.204 752.294C746.212 754.005 746.314 754.024 748.068 755.066C749.934 755.116 750.552 755.018 752.261 755.661C752.621 757.152 752.714 756.468 752.039 757.788C750.088 758.621 748.01 758.106 745.808 757.855C731.799 748.548 753.869 744.753 756.055 741.314C756.003 739.572 755.833 739.432 754.988 737.84C750.065 735.088 747.592 741.491 743.373 741.519L743.114 740.419C745.534 732.57 750.036 734.402 756.38 734.714C757.744 734.781 758.204 733.794 759.108 732.82Z"/><path fill="white" transform="scale(0.585069 0.585069)" d="M710.116 739.961C711.636 736.792 713.656 732.999 718.635 734.718C719.434 734.993 719.319 735.403 719.622 736.268C718.116 738.703 713.089 737.077 714.276 741.221C714.814 743.101 717.359 744.072 719.132 744.861L719.281 745.806C716.229 747.726 712.185 749.237 713.813 753.192C716.501 755.635 719.145 757.051 722.478 755.245C726.803 749.324 722.301 738.422 725.419 734.812C725.939 734.886 726.91 734.849 727.037 735.324C729.305 743.825 729.97 763.982 715.16 757.92C711.965 756.612 711.182 754.798 710.315 751.794C710.418 749.602 711.088 747.902 712.231 746.053C712.054 744.649 710.691 741.765 710.116 739.961Z"/><path fill="white" transform="scale(0.585069 0.585069)" d="M861.808 734.339L864.827 734.745C867.442 738.667 862.354 754.804 869.79 755.964C881.068 753.016 872.372 739.393 877.15 734.581L878.556 734.698C879.679 736.199 879.289 736.031 879.318 738.371C879.306 742.477 880.842 756.509 878.008 758.511C876.752 758.337 876.41 757.861 875.447 757.024L875.088 756.707C858.562 763.617 861.91 744.396 861.808 734.339Z"/><path fill="white" transform="scale(0.585069 0.585069)" d="M892.785 733.989C895.612 734.222 898.645 734.453 900.139 737.179C902.979 742.363 902.277 752.705 900.887 758.057L899.337 758.001C895.354 752.725 903.661 735.849 891.507 737.603C883.984 743.557 890.437 754.315 887.343 758.154C885.293 758.198 886.131 758.52 884.657 757.431C884.063 755.874 884.084 737.504 884.699 735.892C888.766 734.586 886.983 737.27 892.785 733.989Z"/><path fill="white" transform="scale(0.585069 0.585069)" d="M770.751 734.079C775.964 733.705 780.326 734.7 781.919 740.349C783.205 744.913 783.17 753.955 780.981 758.131L780.258 758.346C776.098 753.085 783.285 741.061 774.802 737.012C772.391 737.208 771.249 737.034 769.497 738.552C766.056 744.288 771.434 754.913 767.91 758.244C765.825 758.109 766.56 758.549 765.376 757.385C765.318 754.808 765.161 752.125 765.134 749.552C765.042 740.852 762.255 738.224 770.751 734.079Z"/><path fill="white" transform="scale(0.585069 0.585069)" d="M911.395 734.022C915.251 733.942 922.773 736.139 920.495 740.843C918.628 741.279 919.512 741.339 917.745 740.715C915.386 736.946 913.047 735.493 909.665 739.38C910.48 744.071 933.344 751.504 915.37 758.491C910.835 758.374 907.214 757.428 905.321 752.734L905.359 752.935L905.632 751.732C909.818 749.92 908.979 754.255 912.528 755.216C915.767 756.094 917.316 754.869 918.104 751.955C916.545 745.961 895.733 743.466 911.395 734.022Z"/><path fill="white" transform="scale(0.585069 0.585069)" d="M848.087 734.019C851.883 734.014 856.498 735.016 857.545 739.329C856.764 741.173 857.397 740.515 855.576 741.363C851.853 740.149 853.665 736.456 849.298 736.71C847.717 737.704 847.411 737.749 846.682 739.365C847.938 744.682 869.222 751.332 852.334 758.474C848.128 758.848 841.249 756.055 842.792 751.549L844.025 751.096C847.492 751.774 846.37 757.096 853.098 754.923C854.523 753.727 854.58 753.825 855.011 752.088C853.654 746.193 832.968 743.379 848.087 734.019Z"/><path fill="white" transform="scale(0.585069 0.585069)" d="M674.415 724.096C679.727 723.851 682.437 723.415 687.585 725.197L686.358 726.531L687.512 726.341C685.083 727.362 683.52 727.209 680.926 727.236C681.388 731.363 681.083 753.376 682.432 754.71C683.93 755.296 683.844 755.219 684.737 756.555L684.478 757.601C682.612 758.962 681.136 758.746 679.184 757.814C675.103 752.459 681.58 733.328 675.814 728.019C674 726.35 673.693 726.3 674.415 724.096Z"/><path fill="white" transform="scale(0.585069 0.585069)" d="M843.832 728.111C847.061 727.989 855.747 726.886 857.408 729.393L856.987 730.821L855.694 731.23C852.36 731.295 842.887 732.314 841.26 729.711L841.868 728.461L843.832 728.111Z"/><path fill="white" transform="scale(0.585069 0.585069)" d="M919.72 724.419C921.18 724.428 921.081 724.393 922.286 725.214L922.405 726.17C920.084 728.967 919.68 727.022 917.475 730.942C915.288 730.805 915.916 731.131 914.26 730.023C913.699 726.508 916.757 725.07 919.72 724.419Z"/><path fill="white" transform="scale(0.585069 0.585069)" d="M812.172 754.104C813.194 753.374 814.611 753.589 815.372 754.588C816.132 755.588 815.96 757.011 814.984 757.801C814.326 758.333 813.43 758.466 812.646 758.146C811.861 757.827 811.313 757.106 811.215 756.265C811.116 755.424 811.483 754.596 812.172 754.104Z"/><path fill="#BB7240" transform="scale(0.585069 0.585069)" d="M560.92 258.41C635.359 254.886 708.247 280.482 764.136 329.774C822.545 380.832 858.29 452.99 863.516 530.39C863.843 535.027 865.715 551.594 862.278 554.685C848.595 566.992 850.437 535.735 849.933 529.298C849.137 518.8 847.694 508.362 845.613 498.042C836.167 447.765 813.012 401.075 778.703 363.127C729.854 308.711 661.362 275.964 588.335 272.108C562.051 269.886 528.272 274.469 502.936 280.996C400.772 308.188 322.962 391.105 302.314 494.783C299.472 509.001 297.757 523.421 297.185 537.908C296.976 542.62 297.868 550.106 295.528 554.197C294.215 556.494 289.078 557.92 286.699 556.328C284.244 554.685 283.571 551.221 283.366 548.383C283.345 535.595 284.283 522.667 286.054 509.999C293.781 452.157 318.771 397.989 357.762 354.568C409.8 296.511 483.027 261.851 560.92 258.41Z"/><path fill="#E5472A" transform="scale(0.585069 0.585069)" d="M560.534 283.716C560.734 283.696 560.934 283.677 561.134 283.657C628.574 280.134 694.179 303.024 745.295 346.767C800.89 394.343 833.35 460.591 838.632 533.287C838.674 537.776 841.002 551.592 837.459 554.835C823.8 567.339 825.324 537.596 824.885 532.216C824.039 522.115 822.682 512.062 820.82 502.097C812.173 457.338 791.629 415.733 761.345 381.656C717.264 331.51 654.9 301.15 588.236 297.383C564.848 295.153 533.095 299.289 510.359 305.154C418.661 328.811 344.89 405.437 326.832 499.333C324.794 510.524 323.395 521.823 322.644 533.174C322.447 536.654 322.461 540.122 322.307 543.62C322.057 549.325 323.278 556.026 315.678 556.907C310.514 557.505 308.423 551.958 308.41 547.709C308.38 538.29 309.105 528.628 310.153 519.266C316.048 465.807 338.086 415.411 373.333 374.786C422.488 319.146 486.628 288.268 560.534 283.716Z"/><path fill="#F0CF44" transform="scale(0.585069 0.585069)" d="M559.972 309.026C567.131 308.313 579.867 308.691 587.016 309.078C632.367 311.422 676.062 326.878 712.798 353.572C764.867 390.95 799.943 447.491 810.299 510.742C811.245 516.555 816.045 550.862 812.167 554.368C798.573 566.66 799.759 541.53 799.251 534.698C798.7 527.055 797.775 519.443 796.48 511.891C789.918 473.015 773.39 436.504 748.511 405.919C717.584 368.171 675.41 341.285 628.135 329.177C614.279 325.759 601.98 324.294 587.933 322.931C541.044 321.089 503.357 329.342 461.917 352.243C408.125 381.97 365.316 438.605 352.776 499.089C350.577 509.501 349.011 520.035 348.084 530.636C347.399 538.719 348.087 546.66 345.952 554.365C339.897 561.317 333.439 554.788 333.543 547.872C333.681 538.734 334.323 529.063 335.423 519.999C341.184 471.482 361.68 425.897 394.149 389.387C436.637 341.748 496.252 312.858 559.972 309.026Z"/><path fill="#F0CF44" transform="scale(0.585069 0.585069)" d="M567.332 334.374C567.982 334.355 568.633 334.341 569.284 334.335C628.127 333.771 681.203 354.686 723.374 395.984C758.635 430.727 780.924 476.504 786.525 525.687C787.418 533.408 787.995 541.473 788.148 549.258C788.189 551.368 787.299 553.62 785.72 555.074C784.327 556.353 782.48 557.024 780.59 556.939C771.438 556.515 774.125 539.72 773.386 532.645C772.645 525.928 771.655 519.241 770.418 512.598C763.73 476.593 747.378 443.084 723.113 415.655C685.743 373.86 636.585 351.255 580.905 348.22C561.822 347.538 542.741 349.612 524.25 354.376C440.339 375.913 377.931 449.501 373.276 536.353C372.841 541.822 374.701 557.269 365.949 557.117C354.27 556.913 360.104 525.717 361.149 518.666C367.316 475.409 386.522 435.059 416.207 402.995C455.37 360.823 509.804 336.106 567.332 334.374Z"/><path fill="#354C86" transform="scale(0.585069 0.585069)" d="M570.616 411.973C572.962 411.941 575.31 411.962 577.655 412.036C613.878 413.309 648.084 429.024 672.645 455.676C691.726 476.229 704.231 502.014 708.558 529.722C709.544 535.765 712.389 551.236 707.438 555.332C706.203 556.361 704.608 556.856 703.007 556.706C698.627 556.304 696.385 552.705 696.398 548.653C696.552 498.789 664.494 451.968 617.969 433.945C603.547 428.358 591.764 426.238 576.25 425.427C566.024 425.171 555.806 426.177 545.826 428.42C498.345 439.286 461.569 476.855 451.721 524.555C449.991 533.142 449.411 540.529 449.309 549.209C448.635 555.049 443.151 559.905 438.152 555.086C433.882 550.97 436.085 538.265 436.834 532.433C440.47 504.153 452.731 477.681 471.947 456.615C498.642 427.513 531.601 413.722 570.616 411.973Z"/><path fill="#354C86" transform="scale(0.585069 0.585069)" d="M566.649 437.836C569.66 437.667 572.677 437.634 575.69 437.738C605.459 438.44 633.69 451.108 654.002 472.88C673.144 493.321 684.041 520.595 684.484 548.594C684.777 557.548 674.695 560.257 671.485 551.82C670.245 548.559 670.704 540.368 670.184 536.359C667.517 517.28 659.317 499.4 646.597 484.932C629.463 465.127 605.088 453.039 578.952 451.385C568.372 450.865 561.327 451.232 550.891 453.76C513.203 462.746 484.185 492.831 476.568 530.817C475.36 536.742 476.388 569.289 462.098 552.772C460.371 550.775 461.946 538.358 462.383 535.176C465.324 512.843 474.88 491.899 489.821 475.039C509.374 452.798 537.074 439.385 566.649 437.836Z"/><path fill="#8AC454" transform="scale(0.585069 0.585069)" d="M549.718 361.565C554.483 360.347 565.936 360.052 570.938 360.008C605.548 359.535 639.611 368.673 669.336 386.406C712.782 412.226 744.093 454.351 756.289 503.394C758.706 512.947 765.306 546.583 760.679 554.055C759.725 555.596 758.265 556.748 756.443 557.023C754.5 557.317 752.091 556.634 750.557 555.41C749.126 554.268 748.402 552.717 748.242 550.922C747.326 540.617 747.388 530.584 745.681 520.293C738.867 480.729 718.821 444.65 688.824 417.966C653.828 386.868 607.793 371.153 561.085 374.361C556.524 374.674 551.969 375.078 547.424 375.573C543.824 374.526 542.077 376.73 539.068 373.515C538.101 371.054 538.634 370.159 538.904 367.799C539.676 361.035 545.891 364.93 549.718 361.565Z"/><defs><linearGradient id="gradient_0" gradientUnits="userSpaceOnUse" x1="752.93298" y1="526.29065" x2="547.83282" y2="379.62006"><stop offset="0" stop-color="#7BC054"/><stop offset="1" stop-color="#BFD750"/></linearGradient></defs><path fill="url(#gradient_0)" transform="scale(0.585069 0.585069)" d="M542.074 388.7C586.118 380.593 628.697 389.28 665.627 414.766C701.327 439.44 725.748 477.299 733.506 519.995C735.134 528.92 737.721 545.279 735.021 553.821C733.677 558.073 722.845 557.793 722.802 552.051C722.17 466.843 653.169 396.232 566.963 399.863C560.266 400.145 552.777 401.58 545.694 402.104L542.025 402C539.427 399.545 539.895 391.744 542.074 388.7Z"/><path fill="#F0CF44" transform="scale(0.585069 0.585069)" d="M547.424 375.573C538.427 377.404 528.982 379.408 520.257 382.209C459.919 401.409 414.647 451.684 401.854 513.693C399.364 525.915 398.468 536.879 398.117 549.215C397.805 555.958 391.988 560.648 386.833 555.028C382.512 550.318 385.182 532.957 385.865 527.032C390.128 488.88 406.052 452.97 431.466 424.196C456.802 395.571 490.127 375.185 527.15 365.662C533.694 364.016 543.004 361.966 549.718 361.565C545.891 364.93 539.676 361.035 538.904 367.799C538.634 370.159 538.101 371.054 539.068 373.515C542.077 376.73 543.824 374.526 547.424 375.573Z"/><path fill="#6A3C83" transform="scale(0.585069 0.585069)" d="M564.492 463.674C566.136 463.407 571.041 463.302 572.909 463.295C595.51 463.353 617.163 472.387 633.104 488.408C648.891 504.333 658.184 525 658.767 547.605C658.98 555.843 652.473 560.642 646.325 553.292C645.16 551.9 644.829 542.608 644.552 539.907C643.366 528.309 638.554 517.192 631.827 507.703C618.585 489.541 602.855 480.843 581.208 477.149C570.729 475.985 559.364 477.061 549.454 480.598C525.223 489.232 507.252 509.879 502.045 535.068C500.847 540.906 502.168 563.898 489.921 555.497C485.656 552.571 487.24 545.5 487.561 540.94C488.702 524.722 495.876 508.672 505.89 495.977C520.344 477.838 541.436 466.211 564.492 463.674Z"/><defs><linearGradient id="gradient_1" gradientUnits="userSpaceOnUse" x1="434.71057" y1="456.09583" x2="508.41464" y2="484.62839"><stop offset="0" stop-color="#F6E74B"/><stop offset="1" stop-color="#CBD853"/></linearGradient></defs><path fill="url(#gradient_1)" transform="scale(0.585069 0.585069)" d="M545.694 402.104C538.054 403.907 530.504 406.071 523.07 408.588C473.821 426.032 437.295 467.979 426.792 519.157C425.78 523.941 425.013 528.774 424.493 533.637C423.781 540.313 424.636 547.981 422.046 554.084C421.553 555.248 419.636 557.381 418.269 557.448C406.91 558.005 409.921 541.593 410.601 534.43C412.903 507.615 421.893 481.805 436.75 459.362C460.954 422.631 498.906 397.169 542.074 388.7C539.895 391.744 539.427 399.545 542.025 402L545.694 402.104Z"/><path fill="#CC9649" transform="scale(0.585069 0.585069)" d="M246.581 630.934C248.931 631.527 251.505 632.147 253.527 633.018C255.383 633.818 263.423 640.587 264.804 639.534C270.953 634.892 275.413 618.349 284.761 620.651C287.471 621.318 295.782 625.705 296.681 628.222C299.527 636.186 295.146 647.561 293.249 655.218C291.392 662.707 290.891 669.479 288.374 676.699C287.749 678.49 286.726 680.717 285.595 682.241C284.469 682.315 284.543 682.283 283.524 681.771C281.522 683.916 282.669 692.225 279.945 692.549C278.616 690.999 277.801 689.005 277.926 686.953C274.506 678.222 276.202 668.784 278.698 660.001C280.64 654.996 281.998 649.151 283.361 643.935C283.651 642.824 282.594 640.163 282.162 639.015L281.294 638.657C272.767 646.992 267.979 668.584 255.3 672.753C250.9 674.2 251.727 657.047 251.573 654.374C251.495 653.025 253.44 647.087 253.961 645.326C249.22 649.334 246.949 655.45 243.971 661.087L244.186 661.891C246.617 671.154 243.628 685.66 231.031 683.736C220.29 675.127 232.525 645.444 239.892 637.27C241.927 635.013 244.181 632.82 246.581 630.934Z"/><path fill="#E5CBA3" transform="scale(0.585069 0.585069)" d="M278.698 660.001C278.998 660.449 279.723 661.495 279.676 662.042C279.198 667.578 279.341 682.246 277.926 686.953C274.506 678.222 276.202 668.784 278.698 660.001Z"/><path fill="#CC9649" transform="scale(0.585069 0.585069)" d="M570.277 628.928C580.804 618.511 594.589 622.054 605.2 630.219C608.098 629.385 612.359 628.929 614.514 631.571C614.272 633.537 613.459 633.462 611.717 635.35C614.876 639.135 618.977 642.805 618.394 647.799C617.608 654.539 612.745 662.952 608.882 668.43C605.731 672.649 595.672 686.014 591.44 689.077C583.394 696.299 573.731 694.657 567.878 685.896C561.308 676.06 565.371 668.19 571.251 659.826C576.701 651.926 581.153 645.215 590.15 641.244C592.657 640.137 595.71 638.849 597.435 636.751L596.615 636.536C592.483 635.478 587.154 634.977 583.249 637.226C580.283 638.935 581.095 641.452 579.343 643.269C574.443 643.614 571.584 632.838 570.277 628.928Z"/><path fill="#DBBB73" transform="scale(0.585069 0.585069)" d="M597.435 636.751L598.772 637.022L597.521 639.211C599.027 638.919 600.593 638.411 601.963 638.939C601.34 640.821 601.064 640.181 599.666 641.378C598.041 642.892 592.116 642.316 590.85 643.193C586.283 646.357 582.684 651.368 578.986 655.415C576.415 658.231 575.183 661.888 571.251 659.826C576.701 651.926 581.153 645.215 590.15 641.244C592.657 640.137 595.71 638.849 597.435 636.751Z"/><path fill="#E5CBA3" transform="scale(0.585069 0.585069)" d="M591.44 689.077C591.8 684.566 603.464 668.884 607.101 667.46L608.882 668.43C605.731 672.649 595.672 686.014 591.44 689.077Z"/><path fill="white" transform="scale(0.585069 0.585069)" d="M582.346 671.979C585.151 664.228 597.457 645.32 606.212 644.597C606.975 647.048 609.715 648.937 609.322 651.185C608.937 653.385 605.348 657.699 603.881 659.68C602.43 662.219 595.87 669.04 593.603 671.469C590.141 675.162 583.378 682.949 579.152 685.166L577.623 685.145C576.387 683.736 576.729 684.563 576.788 682.499L577.888 681.433C579.421 678.304 580.907 675.152 582.346 671.979Z"/><path fill="#D5A769" transform="scale(0.585069 0.585069)" d="M602.914 654.196C605.142 657.699 602.274 656.284 603.881 659.68C602.43 662.219 595.87 669.04 593.603 671.469C590.141 675.162 583.378 682.949 579.152 685.166L577.623 685.145C576.387 683.736 576.729 684.563 576.788 682.499L577.888 681.433C579.421 678.304 580.907 675.152 582.346 671.979C582.627 674.172 582.522 675.109 584.007 676.657C587.712 673.521 590.569 670.084 593.633 666.379C596.244 662.462 599.962 657.964 602.914 654.196Z"/><path fill="#F2EFE5" transform="scale(0.585069 0.585069)" d="M582.346 671.979C582.627 674.172 582.522 675.109 584.007 676.657C582.437 678.405 580.256 681.195 577.888 681.433C579.421 678.304 580.907 675.152 582.346 671.979Z"/><path fill="#DBBB73" transform="scale(0.585069 0.585069)" d="M606.212 644.597C606.975 647.048 609.715 648.937 609.322 651.185C608.937 653.385 605.348 657.699 603.881 659.68C602.274 656.284 605.142 657.699 602.914 654.196C605.512 650.283 606.15 649.282 606.212 644.597Z"/><path fill="#CC9649" transform="scale(0.585069 0.585069)" d="M528.217 638.444L529.592 637.969L529.334 637.326C525.399 635.947 516.15 635.167 513.449 639.189L513.389 639.694C513.23 640.957 513.263 641.604 512.59 642.684C506.46 643.914 498.741 623.61 512.841 622.856C523.124 622.306 529.293 622.588 537.191 629.949C540.426 629.716 544.382 629.337 547.286 631.016L547.578 631.875L546.74 633.034L544.265 633.412L543.89 634.085C545.382 636.327 547.374 637.869 548.844 640.237C554.736 649.733 546.629 661.195 540.766 668.641C539.626 670.182 534.835 676.836 533.598 677.86C524.452 688.389 525.837 690.544 511.92 694.251C509.727 693.705 508.073 693.02 505.979 692.214C502.667 688.183 498.343 684.425 497.493 679.178C496.243 671.459 501.688 663.292 505.831 657.273C511.437 648.835 518.721 642.098 528.217 638.444Z"/><path fill="#DBBB73" transform="scale(0.585069 0.585069)" d="M505.831 657.273C511.437 648.835 518.721 642.098 528.217 638.444C526.035 640.934 509.554 657.828 507.639 658.254L505.831 657.273Z"/><path fill="#E5CBA3" transform="scale(0.585069 0.585069)" d="M533.598 677.86C532.443 675.765 532.23 677.772 530.71 677.374C532.538 674.242 536.093 667.313 539.837 666.639L540.766 668.641C539.626 670.182 534.835 676.836 533.598 677.86Z"/><path fill="white" transform="scale(0.585069 0.585069)" d="M510.01 681.678C515.53 670.566 525.763 647.266 539.178 644.656C540.483 650.259 543.932 649.727 539.372 655.443C535.247 661.097 523.856 675.418 518.602 679.669C516.517 681.639 514.095 684.262 511.562 685.331C510.036 684.829 510.531 685.005 509.512 683.091C509.675 682.48 509.678 682.151 510.01 681.678Z"/><path fill="#D5A769" transform="scale(0.585069 0.585069)" d="M517.16 676.728C523.223 670.804 530.098 661.364 535.036 654.543C536.538 654.666 538.195 654.61 539.372 655.443C535.247 661.097 523.856 675.418 518.602 679.669C518.402 678.806 517.619 677.568 517.16 676.728Z"/><path fill="#D5A769" transform="scale(0.585069 0.585069)" d="M539.178 644.656C540.483 650.259 543.932 649.727 539.372 655.443C538.195 654.61 536.538 654.666 535.036 654.543C537.038 651.163 538.825 648.568 539.178 644.656Z"/><path fill="#DBBB73" transform="scale(0.585069 0.585069)" d="M510.01 681.678L510.747 681.914C513.307 680.732 515.119 678.698 517.16 676.728C517.619 677.568 518.402 678.806 518.602 679.669C516.517 681.639 514.095 684.262 511.562 685.331C510.036 684.829 510.531 685.005 509.512 683.091C509.675 682.48 509.678 682.151 510.01 681.678Z"/><path fill="#DBBB73" transform="scale(0.585069 0.585069)" d="M534.71 638.856L536.189 639.265C535.348 640.817 533.325 641.488 531.499 642.493C531.187 642.468 530.494 642.238 530.159 642.141C531.048 640.63 532.984 639.88 534.71 638.856Z"/><path fill="#6A3C83" transform="scale(0.585069 0.585069)" d="M565.47 489.533C600.46 484.473 634.801 515.414 632.95 550.606C632.74 554.61 629.882 557.488 625.643 556.511C619.452 555.084 620.051 548.563 619.216 543.185C615.877 521.658 600.7 507.203 579.628 502.941C554.561 500.716 533.96 513.475 527.214 538.752C526.118 542.86 527.213 550.234 524.976 553.867C521.843 558.955 513 556.734 512.924 550.414C512.243 536.878 516.856 523.672 525.02 512.991C534.781 500.03 549.371 491.569 565.47 489.533Z"/><path fill="#CC9649" transform="scale(0.585069 0.585069)" d="M426.874 623.564C433.17 626.968 437.777 630.248 439.985 637.494C442.567 645.969 439.034 652.848 437.411 660.693C446.309 655.109 451.883 651.149 462.61 652.263C465.837 645.841 475.574 629.717 481.399 626.02C483.829 625.986 484.959 629.053 486.101 631.077C485.261 635.11 484.874 636.289 483.662 639.837C482.028 644.622 474.043 658.269 474.064 662.059L474.999 663.298C477.249 665.63 477.525 667.872 477.565 671.081C477.617 671.443 477.663 671.806 477.702 672.17C478.405 679.016 468.329 688.336 463.459 694.282C454.307 687.67 455.595 677.653 457.585 667.662C448.408 670.493 434.154 683.791 426.301 681.049C424.454 679.239 423.274 676.074 422.146 673.61C424.208 663.875 428.373 653.381 431.605 643.799L432.626 639.286C432.204 637.19 431.943 636.197 429.492 635.718C427.643 638.21 429.48 640.935 427.847 643.199C423.376 643.386 422.832 638.036 422.714 634.636C422.582 630.787 424.959 626.802 426.874 623.564Z"/><path fill="#D5A769" transform="scale(0.585069 0.585069)" d="M474.999 663.298C477.249 665.63 477.525 667.872 477.565 671.081C474.039 669.614 472.468 675.463 469.677 677.133C470.2 671.37 474.383 669.154 474.999 663.298Z"/><path fill="#D5A769" transform="scale(0.585069 0.585069)" d="M432.626 639.286C434.527 640.471 434.659 640.699 435.428 642.813L435.189 644.147C433.607 644.892 433.881 644.539 431.605 643.799L432.626 639.286Z"/><path fill="#CC9649" transform="scale(0.585069 0.585069)" d="M645.012 679.383C643.689 681.527 639.805 688.279 638.451 688.265C626.95 688.145 630.849 668.181 634.294 662.894C639.383 655.083 640.553 660.134 643.464 659.339C645.29 655.238 646.527 648.034 645.439 643.502C644.894 644.743 644.67 645.119 643.985 646.237L643.058 646.111C637.612 640.829 643.479 622.808 649.202 624.822C649.349 625.003 654.707 637.346 655.023 638.23C658.44 647.805 655.624 659.128 651.371 667.999C651.117 668.529 650.874 669.063 650.633 669.599L650.411 669.218L650.401 669.646C653.863 672.203 656.419 673.701 660.101 675.834C670.841 669.054 675.092 653.722 683.046 644.472C682.932 644.605 684.323 643.451 684.52 643.245C684.959 639.874 688.885 627.987 690.864 625.401L691.536 625.466C692.3 626.82 692.725 632.603 693.027 634.708L690.388 640.66C692.057 644.939 690.048 650.832 688.705 655.193C686.988 661.367 685.862 664.696 682.823 670.489C679.999 676.141 674.187 682.259 669.497 686.603C668.661 687.8 667.224 689.857 665.891 690.234C665.482 688.551 666.522 687.233 667.404 685.381C658.362 689.831 651.225 686.505 645.012 679.383Z"/><path fill="#E5CBA3" transform="scale(0.585069 0.585069)" d="M684.52 643.245C683.839 651.289 669.975 673.02 662.317 676.556C661.415 676.309 660.917 676.238 660.101 675.834C670.841 669.054 675.092 653.722 683.046 644.472C682.932 644.605 684.323 643.451 684.52 643.245Z"/><path fill="#D5A769" transform="scale(0.585069 0.585069)" d="M684.356 656.992C685.099 656.25 685.62 655.448 686.245 654.597C687.869 654.298 687.057 654.215 688.705 655.193C686.988 661.367 685.862 664.696 682.823 670.489C679.458 667.255 682.422 660.601 684.356 656.992Z"/><path fill="#DBBB73" transform="scale(0.585069 0.585069)" d="M684.356 656.992C686.071 650.914 687.309 646.259 690.388 640.66C692.057 644.939 690.048 650.832 688.705 655.193C687.057 654.215 687.869 654.298 686.245 654.597C685.62 655.448 685.099 656.25 684.356 656.992Z"/><path fill="#D5A769" transform="scale(0.585069 0.585069)" d="M667.404 685.381C668.934 685.747 668.225 685.419 669.497 686.603C668.661 687.8 667.224 689.857 665.891 690.234C665.482 688.551 666.522 687.233 667.404 685.381Z"/><path fill="#CC9649" transform="scale(0.585069 0.585069)" d="M728.262 665.984C735.931 653.336 740.18 640.949 751.353 630.125C752.807 628.716 754.481 625.507 756.338 624.905C757.446 626.187 757.279 627.108 757.597 628.987L758.364 628.976L760.374 626.833C768.184 632.215 751.658 648.674 748.835 653.614C745.158 660.048 742.208 666.563 739.083 673.268C737.989 675.536 728.724 685.758 726.38 685.755C720.41 685.746 717.822 682.605 720.702 676.872C720.114 675.746 720.171 675.782 719.238 674.932C716.98 674.3 718.063 668.329 718.266 666.456C718.826 657.827 720.888 651.432 721.731 643.217C717.614 647.409 713.432 649.893 714.057 654.875C714.146 655.588 712.194 655.804 711.351 655.95C705.844 654.41 705.356 646.199 707.026 641.73C709.398 635.38 713.879 630.766 719.858 627.68C724.895 629.508 729.124 630.748 731.647 636.154C734.958 643.249 730.158 658.122 728.262 665.984Z"/><path fill="#E5CBA3" transform="scale(0.585069 0.585069)" d="M718.266 666.456L720.583 666.671C722.46 669.098 720.659 672.523 719.238 674.932C716.98 674.3 718.063 668.329 718.266 666.456Z"/><path fill="#CC9649" transform="scale(0.585069 0.585069)" d="M832.968 644.12C823.718 644.142 818.94 642.217 827.943 634.701C826.297 634.384 826.728 634.788 825.81 633.871C829.15 627.656 840.594 622.663 847.619 623.363C852.074 623.825 856.149 626.078 858.909 629.605C867.32 640.196 863.024 659.44 852.978 667.412C851.41 668.828 851.222 669.035 850.274 670.919C849.14 673.673 840.92 685.558 839.018 687.9C836.577 687.798 833.618 687.47 831.138 687.254C824.922 682.376 819.9 672.757 826.173 666.056C828.401 665.11 827.435 665.231 829.827 665.599C831.945 666.881 832.329 668.166 833.495 670.382C835.366 666.924 838.559 663.605 840.663 660.37C842.832 657.033 850.904 641.887 849.644 638.697C848.506 638.383 845.589 636.858 845.073 636.896C840.705 637.215 836.195 641.421 832.968 644.12Z"/><path fill="#E5CBA3" transform="scale(0.585069 0.585069)" d="M850.274 670.919L849.749 670.34C848.413 671.272 847.445 672.21 845.872 672.297C846.483 670.201 849.963 666.34 852.215 665.96L852.978 667.412C851.41 668.828 851.222 669.035 850.274 670.919Z"/><path fill="#CC9649" transform="scale(0.585069 0.585069)" d="M386.373 623.316C408.042 621.522 409.484 649.755 399.581 662.487C397.231 665.508 390.124 668.598 389.55 670.263L391.724 669.756L392.209 670.268C390.062 676.076 379.987 694.83 371.743 685.844C366.484 680.112 364.975 676.804 365.199 669.03C369.242 661.785 372.302 665.486 374.788 670.871C377.813 665.302 382.951 661.237 385.168 656.872C388 651.296 389.562 645.086 392.685 638.725C382.892 635.717 382.373 637.299 375.48 644.052C371.747 644.186 365.999 645.224 365.673 640.423C366.798 637.488 369.37 635.983 369.909 634.18L368.576 633.646L368.23 632.751C371.022 628.131 381.193 624.507 386.373 623.316Z"/><path fill="#983837" transform="scale(0.585069 0.585069)" d="M724.476 134.351C726.92 134.445 731.439 136.122 730.469 139.259C726.755 151.278 721.695 163.18 717.049 174.921L700.516 216.361C698.379 221.682 692.033 239.329 688.653 242.396C686.434 242.262 681.221 240.574 682.23 237.579C687.601 221.631 694.414 205.908 700.668 190.239L713.633 157.646C715.79 152.161 720.409 137.875 724.476 134.351Z"/><path fill="#983837" transform="scale(0.585069 0.585069)" d="M421.208 134.271C426.301 135.255 427.475 138.535 428.642 143.312C431.862 156.487 463.899 233.948 462.709 239.793C461.568 241.795 460.981 241.939 458.929 243.2C457.448 242.935 455.747 242.679 454.719 241.475C452.275 238.61 417.073 140.397 417.563 138.294C418.044 136.225 419.554 135.362 421.208 134.271Z"/><path fill="#983837" transform="scale(0.585069 0.585069)" d="M815.563 183.866C817.25 184.009 818.94 184.244 820.232 185.463C821.145 186.324 821.654 187.595 821.513 188.854C821.192 191.717 763.274 273.955 757.83 278.693C755.197 278.463 754.222 278.021 752.313 276.243C750.833 273.175 751.574 272.104 753.507 269.392C770.197 245.974 787.045 222.672 803.628 199.177C806.513 195.088 811.81 186.783 815.563 183.866Z"/><path fill="#983837" transform="scale(0.585069 0.585069)" d="M623.011 110.195C625.485 110.173 625.877 110.027 628.018 111.067C631.194 114.687 628.701 124.452 628.066 129.249L623.869 160.269L618.344 199.795C617.447 206.295 616.645 212.992 615.648 219.489C615.423 220.954 614.175 222.257 613.186 223.343C610.788 223.375 609.761 223.38 607.781 222.18C605.177 218.88 607.583 208.6 608.202 204.147L612.198 175.59L617.457 136.956C618.235 131.134 619.506 114.004 623.011 110.195Z"/><path fill="#983837" transform="scale(0.585069 0.585069)" d="M147.424 541.231L248.921 540.863C252.751 540.869 256.049 540.276 258.579 542.818C259.92 545.994 258.951 548.333 256.023 550.036L255.648 550.049C220.243 551.044 184.255 550.364 148.819 550.354C147.201 550.353 146.281 549.765 145.16 548.71C143.563 545.492 144.674 543.237 147.424 541.231Z"/><path fill="#983837" transform="scale(0.585069 0.585069)" d="M521.387 110.115C523.442 110.332 525.283 110.475 526.633 112.222C527.789 113.717 538.688 212.949 538.276 220.7C537.518 222.526 536.782 222.774 535.062 223.958C532.953 223.664 532.617 223.64 530.803 222.553C528.36 219.621 527.13 200.141 526.614 195.254L522.073 152.74C520.783 140.637 518.938 125.971 518.336 113.692C518.269 112.312 520.292 110.93 521.387 110.115Z"/><path fill="#983837" transform="scale(0.585069 0.585069)" d="M158.456 438.06C163.654 438.495 186.772 444.568 192.842 446.007L234.97 456.188C241.407 457.71 259.556 461.061 265.966 464.56C268.723 466.065 266.596 470.168 264.107 472.54C256.139 471.093 246.919 468.617 238.894 466.697L190.534 455.011C179.639 452.385 168.27 450.21 157.647 446.861C153.395 445.52 156.185 440.256 158.456 438.06Z"/><path fill="#983837" transform="scale(0.585069 0.585069)" d="M986.764 439.436C989.485 439.482 990.62 440.84 991.491 443.226C991.415 445.296 991.387 445.356 990.249 447.139C985.621 450.545 898.057 468.235 884.991 471.038L882.58 470.681C876.991 466.948 879.764 462.298 885.636 461.23C919.378 455.09 953.142 445.683 986.764 439.436Z"/><path fill="#983837" transform="scale(0.585069 0.585069)" d="M330.063 183.841C335.761 184.708 338.673 191.543 341.887 196.321L356.604 218.219L379.698 252.563C382.158 256.204 393.779 271.997 393.678 275.573C392.998 277.718 392.089 278.199 390.372 279.666C390.03 279.659 389.689 279.644 389.348 279.622C384.62 279.286 379.664 269.437 376.886 265.306L360.418 240.843L341.134 212.084C338.414 208.058 326.242 191.502 326.717 187.59C327.694 185.439 328.094 185.326 330.063 183.841Z"/><path fill="#983837" transform="scale(0.585069 0.585069)" d="M892.274 254.073C894.086 254.612 895.497 255.334 896.538 256.989C897.298 258.196 897.429 259.465 896.989 260.823C896.429 262.55 820.302 327.497 814.084 330.688C810.918 329.886 808.108 327.773 809.341 324.166C809.694 323.134 811.813 321.148 812.7 320.405C828.816 306.91 844.878 293.346 860.904 279.745C866.827 274.786 887.039 256.991 892.274 254.073Z"/><path fill="#983837" transform="scale(0.585069 0.585069)" d="M949.898 341.904C950.394 341.867 951.742 341.991 952.31 342.027C957.227 344.739 956.863 348.877 951.85 351.235C920.493 365.99 889.534 382.621 857.996 396.885C854.421 396.738 853.202 394.753 852.702 391.421C855.18 386.536 883.337 374.331 889.453 371.354L949.898 341.904Z"/><path fill="#983837" transform="scale(0.585069 0.585069)" d="M252.036 253.561L252.272 253.56C254.383 253.53 255.497 253.435 257.111 254.825C262.176 259.19 267.192 263.704 272.194 268.138L301.898 294.457L323.412 313.669C326.565 316.501 335.789 323.711 336.27 327.638C335.881 329.631 335.14 330.197 333.787 331.828C328.74 332.85 322.343 325.321 318.515 321.878L298.946 304.318C283.299 290.387 267.472 276.656 251.926 262.621C248.272 259.323 249.101 257.149 252.036 253.561Z"/><path fill="#CC9649" transform="scale(0.585069 0.585069)" d="M789.291 621.503C792.299 622.498 792.757 622.691 795.379 624.446C797.519 625.229 797.706 625.668 799.305 627.425C812.371 642.535 803.205 662.486 794.14 677.157C787.721 680.342 789.099 681.109 787.75 687.777L787.278 687.679L787.007 686.015C786.898 684.181 786.957 682.896 786.269 681.207C784.798 681.078 784.174 681.914 782.685 682.918C781.86 684.886 781.019 687.004 780.121 688.927C779.498 688.159 779.471 688.394 778.27 687.94C777.616 684.207 785.749 667.662 787.609 663.704C787.856 662.574 789.956 657.252 790.476 655.862C793.269 647.984 796.32 642.211 789.357 635.702C788.246 637.483 785.513 642.77 784.339 643.597C782.941 642.919 783.367 643.093 782.468 641.421L782.075 642.031C782.365 642.774 782.717 643.775 783.057 644.469C783.627 646.737 784.019 647.741 783.048 649.718C778.661 652.479 775.78 646.456 776.055 642.313C776.237 642.063 776.717 640.953 776.868 640.625C777.524 639.053 778.548 637.217 778.311 635.618C777.253 636.072 777.232 636.205 776.117 636.08C771.806 628.647 784.412 623.345 789.291 621.503Z"/><path fill="#D5A769" transform="scale(0.585069 0.585069)" d="M776.868 640.625C778.105 640.475 779.632 640.799 780.585 640.724C783.991 640.453 784.199 634.625 788.648 634.76L789.357 635.702C788.246 637.483 785.513 642.77 784.339 643.597C782.941 642.919 783.367 643.093 782.468 641.421L782.075 642.031C782.365 642.774 782.717 643.775 783.057 644.469C783.627 646.737 784.019 647.741 783.048 649.718C778.661 652.479 775.78 646.456 776.055 642.313C776.237 642.063 776.717 640.953 776.868 640.625Z"/><path fill="#CC9649" transform="scale(0.585069 0.585069)" d="M776.055 642.313C778.121 643.077 780.915 644.267 783.057 644.469C783.627 646.737 784.019 647.741 783.048 649.718C778.661 652.479 775.78 646.456 776.055 642.313Z"/><path fill="#DBBB73" transform="scale(0.585069 0.585069)" d="M787.609 663.704L788.245 664.272C787.951 667.403 787.464 667.461 788.631 669.966C787.105 674.495 784.706 678.599 782.685 682.918C781.86 684.886 781.019 687.004 780.121 688.927C779.498 688.159 779.471 688.394 778.27 687.94C777.616 684.207 785.749 667.662 787.609 663.704Z"/><path fill="#D5A769" transform="scale(0.585069 0.585069)" d="M790.476 655.862C792.356 657.651 793.782 658.555 792.425 661.378C790.888 664.575 789.612 666.481 788.631 669.966C787.464 667.461 787.951 667.403 788.245 664.272L787.609 663.704C787.856 662.574 789.956 657.252 790.476 655.862Z"/><path fill="#F2EFE5" transform="scale(0.585069 0.585069)" d="M795.379 624.446C797.519 625.229 797.706 625.668 799.305 627.425C797.536 627.121 790.471 626.232 789.459 625.279C791.791 624.102 792.705 624.369 795.379 624.446Z"/><path fill="#983837" transform="scale(0.585069 0.585069)" d="M193.961 340.613C196.803 340.663 197.713 340.984 200.237 342.291C214.201 349.517 228.157 356.748 242.154 363.912L272.214 379.302C278.145 382.341 284.132 385.299 289.899 388.639C294.651 391.391 293.701 394.079 290.63 397.664C286.39 397.93 272.895 390.15 268.425 387.855L235.227 370.794L209.005 357.335C203.939 354.727 198.609 352.191 193.824 349.117C190.105 346.728 191.88 343.335 193.961 340.613Z"/><path fill="#983837" transform="scale(0.585069 0.585069)" d="M892.757 540.701C927.684 539.988 963.599 541.775 998.609 541.432C1000.07 541.418 1001.09 542.094 1002.14 543.001C1003.85 546.201 1002.91 548.469 1000.11 550.528C965.278 550.916 930.024 550.03 895.178 549.812C893.386 549.801 891.994 549.302 890.675 548.119C889.032 544.923 890.016 542.76 892.757 540.701Z"/><path fill="#CC9649" transform="scale(0.585069 0.585069)" d="M569.941 589.582C573.39 588.823 576.203 588.015 579.751 588.255L580.653 588.869C579.929 591.002 578.116 591.112 576.876 592.936L578.104 594.478C577.05 596.695 555.521 604.437 551.967 607.585C550.527 608.861 544.657 610.87 542.693 611.42C537.55 612.566 530.168 615.417 525.004 613.686C520.098 612.041 525.186 604.122 524.289 601.012C523.015 600.82 522.717 600.779 521.657 600.049C520.452 596.973 521.692 593.33 521.333 592.289C516.766 579.041 533.917 580.054 537.745 590.315C537.436 593.491 537.165 596.865 536.748 600.009C544.01 596.311 548.884 594.046 556.577 591.197C558.961 590.415 561.793 589.239 564.178 588.322C566.213 587.758 569.91 586.577 571.783 587.375C571.449 588.726 571.27 588.485 569.941 589.582Z"/><path fill="#DBBB73" transform="scale(0.585069 0.585069)" d="M537.745 590.315C537.436 593.491 537.165 596.865 536.748 600.009C544.01 596.311 548.884 594.046 556.577 591.197C555.816 592.747 555.787 592.051 556.061 593.39L558.038 593.586C557.488 596.962 544.188 597.625 542.12 599.768C541.76 603.916 538.491 606.432 534.689 605.297C534.342 603.765 534.631 603.488 535.269 601.983C536.32 600.182 533.654 598.45 533.813 596.75C534.066 594.068 536.44 592.778 537.745 590.315Z"/><path fill="#E5CBA3" transform="scale(0.585069 0.585069)" d="M564.178 588.322C566.213 587.758 569.91 586.577 571.783 587.375C571.449 588.726 571.27 588.485 569.941 589.582C568.276 590.294 566.612 591.317 564.953 590.882C563.98 589.571 564.381 590.29 564.178 588.322Z"/><path fill="#CC9649" transform="scale(0.585069 0.585069)" d="M725.136 586.171C729.647 583.07 735.964 580.986 740.503 586.637C743.028 589.783 741.734 593.049 739.407 596.014L739.522 596.659L741.136 595.831C741.068 598.786 740.701 601.165 739.506 603.864L739.996 604.357L745.805 600.9L745.552 600.453L742.226 600.404C743.215 598.011 747.418 596.469 749.808 595.463C751.063 594.94 752.339 594.47 753.633 594.052C754.643 593.32 757.86 592.213 759.2 591.697C762.371 590.413 765.739 589.182 768.948 587.951C771.339 587.23 773.014 586.396 775.3 587.142L776.022 587.858L775.471 588.057C775.831 588.265 776.332 588.599 776.698 588.704C779.941 588.164 782.736 587.226 785.6 588.733L785.488 589.56C783.835 590.646 781.74 591.545 781.198 593.059L782.871 594.771C781.646 597.72 774.515 597.581 771.335 599.315C758.768 606.165 745.626 614.565 730.713 613.915C729.6 613.866 726.705 609.566 725.923 608.457C727.11 606.068 728.557 604.049 727.904 601.2C726.812 596.446 725.812 590.981 725.136 586.171Z"/><path fill="#DBBB73" transform="scale(0.585069 0.585069)" d="M753.633 594.052C754.643 593.32 757.86 592.213 759.2 591.697C760.195 592.387 761.204 593.055 762.227 593.701C760.497 595.34 756.961 596.616 754.631 596.939C754.549 595.673 754.53 594.996 753.633 594.052Z"/><path fill="#E5CBA3" transform="scale(0.585069 0.585069)" d="M768.948 587.951C771.339 587.23 773.014 586.396 775.3 587.142L776.022 587.858L775.471 588.057C775.831 588.265 776.332 588.599 776.698 588.704C774.038 589.576 771.6 590.845 769.168 589.941L769.724 588.614L768.948 587.951Z"/><path fill="#CC9649" transform="scale(0.585069 0.585069)" d="M440.566 588.22L441.451 588.356L441.765 589.154C440.454 591.363 438.416 592.705 436.378 594.342C439.56 592.8 446.908 588.407 449.315 591.856C447.497 594.357 444.58 596.162 442.31 598.276C431.617 608.235 410.805 621.254 396.352 612.375C388.13 605.001 391.161 597.792 398.983 592.116C402.226 593.991 405.35 595.228 406.292 598.687C404.97 601.024 403.57 601.341 400.941 602.54L400.622 603.519L401.513 604.238C408.782 605.05 433.868 592.135 440.566 588.22Z"/><path fill="#CC9649" transform="scale(0.585069 0.585069)" d="M335.982 622.456C338.264 622.556 339.664 622.602 341.685 623.472C351.352 627.632 348.9 629.753 342.891 635.737C339.487 639.126 337.002 642.829 332.822 645.246C325.739 644.65 322.912 640.12 319.616 634.62C326.617 630.39 329.983 627.696 335.982 622.456Z"/><path fill="#DBBB73" transform="scale(0.585069 0.585069)" d="M914.428 600.467C924.183 607.463 924.987 625.531 915.384 633.657C911.237 632.124 908.005 626.009 907.428 621.819C906.258 613.305 909.521 607.097 914.428 600.467Z"/><path fill="#DBBB73" transform="scale(0.585069 0.585069)" d="M886.626 658.906C903.509 659.595 909.048 666.18 911.469 682.118C895.205 682.303 889.37 674.15 886.626 658.906Z"/><path fill="#DBBB73" transform="scale(0.585069 0.585069)" d="M886.848 618.049C901.914 619.7 909.453 626.129 910.67 641.568C895.443 641.977 888.11 632.372 886.848 618.049Z"/><path fill="#DBBB73" transform="scale(0.585069 0.585069)" d="M938.845 639.1C940.215 638.965 940.377 638.832 941.657 639.379C944.266 644.07 937.205 654.492 933.439 657.495C929.565 660.584 927.641 661.203 923.039 661.93L920.791 661.789C914.522 657.829 923.206 646.242 927.515 643.322C931.734 640.463 933.88 639.898 938.845 639.1Z"/><path fill="#DBBB73" transform="scale(0.585069 0.585069)" d="M938.47 659.286C939.876 659.129 940.063 659.012 941.452 659.392C944.639 664.105 937.639 674.815 933.701 677.826C930.053 680.616 928.23 681.036 923.921 681.987L921.028 681.846C915.381 678.169 922.828 667.129 926.737 664.137C930.823 661.009 933.526 660.315 938.47 659.286Z"/><path fill="#DBBB73" transform="scale(0.585069 0.585069)" d="M886.814 638.839C902.221 640.177 910.142 645.401 911.452 661.671C895.348 661.492 890.095 653.719 886.814 638.839Z"/><path fill="#DBBB73" transform="scale(0.585069 0.585069)" d="M941.629 618.337C942.346 619.031 942.483 618.975 942.38 620.118C941.184 633.408 933.262 641.281 920.332 641.5C920.041 641.084 919.64 640.408 919.667 639.867C920.401 625.713 928.612 620.366 941.629 618.337Z"/><path fill="#CC9649" transform="scale(0.585069 0.585069)" d="M320.494 686.028C320.257 687.113 320.249 686.954 319.745 687.972C315.919 689.14 307.159 683.55 310.147 678.033C312.744 676.418 314.147 677.209 315.591 674.21C318.38 668.418 328.334 660.18 335.627 662.461L335.975 663.414C334.752 665.906 332.837 667.243 330.719 669.101L331.837 669.871C334.537 668.787 336.515 667.951 339.344 667.231C333.874 672.111 322.495 679.278 320.494 686.028Z"/><path fill="#D5A769" transform="scale(0.585069 0.585069)" d="M331.837 669.871C334.537 668.787 336.515 667.951 339.344 667.231C333.874 672.111 322.495 679.278 320.494 686.028C319.407 682.133 318.908 680.339 322.08 677.578C324.896 674.177 327.185 671.721 330.719 669.101L331.837 669.871Z"/><path fill="#E5CBA3" transform="scale(0.585069 0.585069)" d="M330.719 669.101L331.837 669.871C329.745 671.692 324.175 677.119 322.08 677.578C324.896 674.177 327.185 671.721 330.719 669.101Z"/><path fill="#DBBB73" transform="scale(0.585069 0.585069)" d="M913.194 635.723C913.289 635.732 913.384 635.74 913.479 635.749C913.944 635.954 915.954 635.874 916.035 636.45C917.186 644.6 917.252 689.001 916.176 693.723L914.056 693.068C912.829 691.386 912.79 640.575 913.194 635.723Z"/><path fill="#CC9649" transform="scale(0.585069 0.585069)" d="M782.685 682.918C784.174 681.914 784.798 681.078 786.269 681.207C786.957 682.896 786.898 684.181 787.007 686.015C784.909 688.689 782.83 694.111 779.657 695.444L778.949 694.796C778.843 692.27 779.323 691.264 780.121 688.927C781.019 687.004 781.86 684.886 782.685 682.918Z"/></svg>